<?xml version="1.0" encoding="utf-8"?>
<!-- Generator: Adobe Illustrator 23.0.2, SVG Export Plug-In . SVG Version: 6.00 Build 0)  -->
<svg version="1.1" id="Layer_1" xmlns="http://www.w3.org/2000/svg" xmlns:xlink="http://www.w3.org/1999/xlink" x="0px" y="0px"
	 viewBox="0 0 141.73 141.73" style="enable-background:new 0 0 141.73 141.73;" xml:space="preserve">
<style type="text/css">
	.st0{fill:#5C5454;}
	.st1{fill:#4D4040;}
	.st2{fill:#F4A8A8;stroke:#4D4040;stroke-width:7;stroke-miterlimit:10;}
	.st3{fill:#3D3636;stroke:#DBDB0D;stroke-width:2;stroke-miterlimit:10;}
	.st4{fill:#D88F8F;}
	.st5{fill:none;stroke:#AD9999;stroke-miterlimit:10;}
	.st6{fill:#393030;}
	.st7{fill:#FFFFFF;}
</style>
<g>
	<polygon class="st0" points="96.41,97.06 80.31,98.14 79.13,79.39 	"/>
	<path class="st1" d="M83.96,80.83H31.56c-12.41,0-22.48-10.44-22.48-23.31v-13.5c0-12.87,10.07-23.31,22.48-23.31h52.41
		c12.41,0,22.48,10.44,22.48,23.31v13.5C106.45,70.39,96.39,80.83,83.96,80.83z"/>
	<polygon class="st2" points="103.02,47.73 88.71,35.93 74.41,24.13 91.41,17.19 108.42,10.24 105.72,28.99 	"/>
	<ellipse class="st3" cx="37.64" cy="48.41" rx="9.89" ry="10.25"/>
	<ellipse class="st3" cx="78.81" cy="48.41" rx="9.89" ry="10.25"/>
	<polygon class="st2" points="42.28,21.75 27.57,33.01 12.86,44.27 10.81,25.44 8.76,6.61 25.52,14.18 	"/>
	<path class="st4" d="M59.09,66.02c-0.59,0.75-2.07,0.75-2.65,0l-1.63-2.07l-1.63-2.07c-0.59-0.75,0.15-1.69,1.32-1.69h3.26h3.26
		c1.18,0,1.92,0.94,1.32,1.69l-1.63,2.07L59.09,66.02z"/>
	<path class="st5" d="M48.17,70.85l0.46,0.41c5.43,4.94,13.61,4.66,18.71-0.64l0,0"/>
	<line class="st5" x1="57.77" y1="66.58" x2="57.77" y2="74.8"/>
	<path class="st1" d="M41.38,138.77L41.38,138.77c-2.82,0-5.1-2.36-5.1-5.29V76.53c0-2.92,2.28-5.29,5.1-5.29l0,0
		c2.82,0,5.1,2.36,5.1,5.29v56.95C46.48,136.41,44.2,138.77,41.38,138.77z"/>
	<path class="st1" d="M74.86,139.65L74.86,139.65c-2.82,0-5.1-2.36-5.1-5.29V77.41c0-2.92,2.28-5.29,5.1-5.29l0,0
		c2.82,0,5.1,2.36,5.1,5.29v56.95C79.96,137.29,77.68,139.65,74.86,139.65z"/>
	<rect x="36.95" y="79.17" class="st1" width="41.38" height="53.52"/>
	<ellipse class="st1" cx="85.82" cy="111.68" rx="20.25" ry="20.99"/>
	<path class="st1" d="M86.03,132.68h-21.1v-13.05H91.3v7.78C91.3,130.33,88.94,132.68,86.03,132.68z"/>
	<path class="st6" d="M69.95,132.68H46.3v-22.37c0-6.77,5.29-12.25,11.82-12.25l0,0c6.53,0,11.82,5.49,11.82,12.25L69.95,132.68
		L69.95,132.68z"/>
	<polygon class="st0" points="57.99,92.82 47.81,87.03 37.64,81.25 57.99,81.25 78.33,81.25 68.16,87.03 	"/>
	<path class="st1" d="M139.42,75.65c-0.59-2.86-1.43-5.59-2.52-8.16c-3.13-7.39-14.42-3.82-13.05,4.12
		c0.03,0.14,0.05,0.29,0.07,0.43c2.51,5.03,3.97,11.04,3.97,17.49c0,17.69-10.96,32.04-24.49,32.04c-2.3,0-4.52-0.42-6.63-1.2
		c-0.02,0.01-0.03,0.01-0.04,0.02c-8.24,3.57-16.72,4.57-24.68,3.48c10.92,6.22,24.67,7.77,37.98,2.87
		C131.04,119.01,143.75,96.91,139.42,75.65z"/>
	<polygon class="st7" points="38.39,137.74 37.91,137.35 37.91,134.86 38.39,134.86 	"/>
	<rect x="41.16" y="134.86" class="st7" width="0.46" height="3.91"/>
	<polygon class="st7" points="44.22,137.82 44.22,134.86 43.75,134.86 43.75,138.17 	"/>
	<polygon class="st7" points="71.88,138.67 71.41,138.28 71.41,135.79 71.88,135.79 	"/>
	<rect x="74.66" y="135.79" class="st7" width="0.46" height="3.91"/>
	<polygon class="st7" points="77.72,138.74 77.72,135.79 77.24,135.79 77.24,139.1 	"/>
	<path class="st0" d="M79.96,132.53h5.37c0-3.08-2.4-5.57-5.37-5.57V132.53z"/>
</g>
</svg>
