<?xml version="1.0" encoding="utf-8"?>
<!-- Generator: Adobe Illustrator 23.0.2, SVG Export Plug-In . SVG Version: 6.00 Build 0)  -->
<svg version="1.1" id="Layer_1" xmlns="http://www.w3.org/2000/svg" xmlns:xlink="http://www.w3.org/1999/xlink" x="0px" y="0px"
	 viewBox="0 0 141.73 141.73" style="enable-background:new 0 0 141.73 141.73;" xml:space="preserve">
<style type="text/css">
	.st0{fill:#5C5454;}
	.st1{fill:#4D4040;}
	.st2{fill:#F4A8A8;stroke:#4D4040;stroke-width:7;stroke-miterlimit:10;}
	.st3{fill:#3D3636;stroke:#DBDB0D;stroke-width:2;stroke-miterlimit:10;}
	.st4{fill:#D88F8F;}
	.st5{fill:none;stroke:#AD9999;stroke-miterlimit:10;}
	.st6{fill:#393030;}
	.st7{fill:#FFFFFF;}
</style>
<polygon class="st0" points="95.47,98.94 78.92,100.01 77.72,81.43 "/>
<path class="st1" d="M82.68,82.85H28.85c-12.75,0-23.09-10.34-23.09-23.09V46.39c0-12.75,10.34-23.09,23.09-23.09h53.83
	c12.75,0,23.09,10.34,23.09,23.09v13.37C105.78,72.51,95.44,82.85,82.68,82.85z"/>
<polygon class="st2" points="102.25,50.06 87.55,38.37 72.86,26.68 90.32,19.8 107.79,12.92 105.02,31.49 "/>
<circle class="st3" cx="35.1" cy="50.74" r="10.16"/>
<circle class="st3" cx="77.38" cy="50.74" r="10.16"/>
<polygon class="st2" points="39.86,24.32 24.76,35.47 9.65,46.63 7.55,27.97 5.43,9.32 22.65,16.82 "/>
<path class="st4" d="M57.13,68.18c-0.6,0.75-2.12,0.75-2.72,0l-1.67-2.05l-1.67-2.05c-0.6-0.75,0.15-1.67,1.36-1.67h3.35h3.35
	c1.21,0,1.97,0.93,1.36,1.67l-1.67,2.05L57.13,68.18z"/>
<line class="st5" x1="55.77" y1="68.73" x2="55.77" y2="76.88"/>
<path class="st1" d="M38.94,140.26L38.94,140.26c-2.9,0-5.24-2.34-5.24-5.24V78.6c0-2.9,2.34-5.24,5.24-5.24l0,0
	c2.9,0,5.24,2.34,5.24,5.24v56.43C44.18,137.92,41.84,140.26,38.94,140.26z"/>
<path class="st1" d="M73.33,141.13L73.33,141.13c-2.9,0-5.24-2.34-5.24-5.24V79.47c0-2.9,2.34-5.24,5.24-5.24l0,0
	c2.9,0,5.24,2.34,5.24,5.24v56.43C78.57,138.79,76.23,141.13,73.33,141.13z"/>
<rect x="34.39" y="81.21" class="st1" width="42.5" height="53.03"/>
<circle class="st1" cx="84.59" cy="113.43" r="20.8"/>
<path class="st1" d="M85.17,134.23H63.12V121.3h27.09v7.89C90.21,131.98,87.95,134.23,85.17,134.23z"/>
<path class="st6" d="M68.28,134.23H44v-22.16c0-6.71,5.44-12.14,12.14-12.14l0,0c6.71,0,12.14,5.44,12.14,12.14L68.28,134.23
	L68.28,134.23z"/>
<polygon class="st0" points="56,94.73 45.55,89 35.1,83.27 56,83.27 76.9,83.27 66.45,89 "/>
<path class="st1" d="M139.64,77.72c-0.6-2.84-1.47-5.54-2.59-8.09c-3.21-7.32-14.81-3.78-13.4,4.08c0.03,0.14,0.05,0.29,0.08,0.43
	c2.58,4.98,4.08,10.93,4.08,17.33c0,17.53-11.26,31.74-25.16,31.74c-2.36,0-4.64-0.42-6.8-1.19c-0.02,0.01-0.03,0.01-0.04,0.02
	c-8.46,3.54-17.17,4.53-25.35,3.45c11.22,6.16,25.34,7.69,39,2.85C131.03,120.68,144.08,98.78,139.64,77.72z"/>
<polygon class="st7" points="35.86,139.24 35.38,138.86 35.38,136.39 35.86,136.39 "/>
<rect x="38.71" y="136.39" class="st7" width="0.47" height="3.87"/>
<polygon class="st7" points="41.86,139.32 41.86,136.39 41.37,136.39 41.37,139.67 "/>
<polygon class="st7" points="70.27,140.16 69.78,139.78 69.78,137.31 70.27,137.31 "/>
<rect x="73.12" y="137.31" class="st7" width="0.47" height="3.87"/>
<polygon class="st7" points="76.26,140.23 76.26,137.31 75.78,137.31 75.78,140.59 "/>
<path class="st0" d="M78.57,134.08h5.51c0-3.05-2.47-5.51-5.51-5.51V134.08z"/>
<line class="st5" x1="45.92" y1="76.88" x2="65.62" y2="76.88"/>
</svg>
