<?xml version="1.0" encoding="utf-8"?>
<!-- Generator: Adobe Illustrator 23.0.2, SVG Export Plug-In . SVG Version: 6.00 Build 0)  -->
<svg version="1.1" id="Layer_1" xmlns="http://www.w3.org/2000/svg" xmlns:xlink="http://www.w3.org/1999/xlink" x="0px" y="0px"
	 viewBox="0 0 141.73 141.73" style="enable-background:new 0 0 141.73 141.73;" xml:space="preserve">
<style type="text/css">
	.st0{fill:#5B5353;}
	.st1{fill:#4C3F3F;}
	.st2{fill:#F4A8A8;stroke:#4C3F3F;stroke-width:7;stroke-miterlimit:10;}
	.st3{fill:#3D3636;stroke:#DBDB04;stroke-width:2;stroke-miterlimit:10;}
	.st4{fill:#D88F8F;}
	.st5{fill:none;stroke:#AD9999;stroke-miterlimit:10;}
	.st6{fill:#382F2F;}
	.st7{fill:#FFFFFF;}
</style>
<polygon class="st0" points="95.25,96.74 78.63,97.81 77.42,79.14 "/>
<path class="st1" d="M81.45,80.57H29.29c-13.34,0-24.16-10.82-24.16-24.16V44.89c0-13.34,10.82-24.16,24.16-24.16h52.16
	c13.34,0,24.16,10.82,24.16,24.16v11.52C105.61,69.75,94.79,80.57,81.45,80.57z"/>
<polygon class="st2" points="102.07,47.63 87.3,35.88 72.54,24.14 90.09,17.23 107.64,10.31 104.86,28.97 "/>
<circle class="st3" cx="34.6" cy="48.31" r="10.21"/>
<circle class="st3" cx="77.08" cy="48.31" r="10.21"/>
<polygon class="st2" points="39.38,21.77 24.21,32.98 9.03,44.18 6.91,25.43 4.8,6.69 22.09,14.23 "/>
<path class="st4" d="M56.74,65.83c-0.61,0.75-2.13,0.75-2.74,0l-1.68-2.06l-1.68-2.06c-0.61-0.75,0.15-1.68,1.37-1.68h3.36h3.36
	c1.22,0,1.98,0.93,1.37,1.68l-1.68,2.06L56.74,65.83z"/>
<line class="st5" x1="55.37" y1="66.39" x2="55.37" y2="71.92"/>
<path class="st1" d="M38.46,138.26L38.46,138.26c-2.91,0-5.26-2.36-5.26-5.26V76.31c0-2.91,2.36-5.26,5.26-5.26h0
	c2.91,0,5.26,2.36,5.26,5.26V133C43.72,135.9,41.37,138.26,38.46,138.26z"/>
<path class="st1" d="M73.02,139.13L73.02,139.13c-2.91,0-5.26-2.36-5.26-5.26V77.18c0-2.91,2.36-5.26,5.26-5.26h0
	c2.91,0,5.26,2.36,5.26,5.26v56.69C78.28,136.78,75.92,139.13,73.02,139.13z"/>
<rect x="33.89" y="78.92" class="st1" width="42.7" height="53.27"/>
<circle class="st1" cx="84.33" cy="111.3" r="20.9"/>
<path class="st1" d="M84.7,132.2H62.75V119.2h27.21v7.72C89.97,129.84,87.61,132.2,84.7,132.2z"/>
<path class="st6" d="M67.94,132.2h-24.4v-22.27c0-6.74,5.46-12.2,12.2-12.2h0c6.74,0,12.2,5.46,12.2,12.2V132.2z"/>
<polygon class="st0" points="55.6,92.51 45.1,86.75 34.6,80.99 55.6,80.99 76.6,80.99 66.1,86.75 "/>
<path class="st1" d="M139.64,75.41c-0.6-2.85-1.48-5.57-2.6-8.13c-3.22-7.36-14.88-3.8-13.47,4.1c0.03,0.14,0.05,0.29,0.07,0.43
	c2.59,5.01,4.1,10.99,4.1,17.41c0,17.61-11.32,31.89-25.28,31.89c-2.37,0-4.66-0.42-6.84-1.19c-0.01,0.01-0.03,0.01-0.04,0.02
	c-8.5,3.55-17.26,4.55-25.47,3.47c11.28,6.19,25.46,7.73,39.19,2.86C130.98,118.58,144.1,96.58,139.64,75.41z"/>
<polygon class="st7" points="35.37,137.23 34.88,136.85 34.88,134.37 35.37,134.37 "/>
<rect x="38.23" y="134.37" class="st7" width="0.47" height="3.89"/>
<polygon class="st7" points="41.39,137.31 41.39,134.37 40.9,134.37 40.9,137.66 "/>
<polygon class="st7" points="69.94,138.15 69.45,137.77 69.45,135.29 69.94,135.29 "/>
<rect x="72.8" y="135.29" class="st7" width="0.47" height="3.89"/>
<polygon class="st7" points="75.96,138.22 75.96,135.29 75.47,135.29 75.47,138.58 "/>
<path class="st0" d="M78.28,132.05h5.54c0-3.06-2.48-5.54-5.54-5.54V132.05z"/>
<circle class="st5" cx="55.24" cy="74.58" r="2.66"/>
</svg>
