<?xml version="1.0" encoding="utf-8"?>
<!-- Generator: Adobe Illustrator 23.0.2, SVG Export Plug-In . SVG Version: 6.00 Build 0)  -->
<svg version="1.1" id="Layer_1" xmlns="http://www.w3.org/2000/svg" xmlns:xlink="http://www.w3.org/1999/xlink" x="0px" y="0px"
	 viewBox="0 0 141.73 141.73" style="enable-background:new 0 0 141.73 141.73;" xml:space="preserve">
<style type="text/css">
	.st0{fill:#5C5454;}
	.st1{fill:#4D4040;}
	.st2{fill:#F4A8A8;stroke:#4D4040;stroke-width:7;stroke-miterlimit:10;}
	.st3{fill:#D88F8F;}
	.st4{fill:none;stroke:#AD9999;stroke-miterlimit:10;}
	.st5{fill:#393030;}
	.st6{fill:#FFFFFF;}
	.st7{fill:none;stroke:#030304;stroke-miterlimit:10;}
</style>
<polygon class="st0" points="95.6,99.06 79.1,100.13 77.9,81.6 "/>
<path class="st1" d="M82.85,83.02H29.18C16.46,83.02,6.15,72.71,6.15,60V46.67c0-12.71,10.31-23.02,23.02-23.02h53.67
	c12.71,0,23.02,10.31,23.02,23.02V60C105.88,72.71,95.57,83.02,82.85,83.02z"/>
<polygon class="st2" points="102.36,50.32 87.71,38.67 73.06,27.02 90.47,20.15 107.89,13.29 105.13,31.81 "/>
<polygon class="st2" points="40.15,24.66 25.1,35.78 10.03,46.9 7.93,28.3 5.83,9.7 22.99,17.18 "/>
<path class="st3" d="M57.37,68.39c-0.6,0.74-2.12,0.74-2.72,0l-1.67-2.05l-1.67-2.05c-0.6-0.74,0.15-1.67,1.35-1.67h3.34h3.34
	c1.21,0,1.96,0.92,1.35,1.67l-1.67,2.05L57.37,68.39z"/>
<line class="st4" x1="56.02" y1="68.95" x2="56.02" y2="77.06"/>
<path class="st1" d="M39.24,140.27L39.24,140.27c-2.89,0-5.22-2.33-5.22-5.22V78.78c0-2.89,2.33-5.22,5.22-5.22l0,0
	c2.89,0,5.22,2.33,5.22,5.22v56.26C44.46,137.93,42.13,140.27,39.24,140.27z"/>
<path class="st1" d="M73.53,141.13L73.53,141.13c-2.89,0-5.22-2.33-5.22-5.22V79.65c0-2.89,2.33-5.22,5.22-5.22l0,0
	c2.89,0,5.22,2.33,5.22,5.22v56.26C78.75,138.8,76.41,141.13,73.53,141.13z"/>
<rect x="34.7" y="81.38" class="st1" width="42.38" height="52.87"/>
<circle class="st1" cx="84.75" cy="113.51" r="20.74"/>
<path class="st1" d="M85.33,134.25H63.35v-12.89h27.01v7.87C90.36,132,88.11,134.25,85.33,134.25z"/>
<path class="st5" d="M68.49,134.25H44.28v-22.1c0-6.69,5.42-12.1,12.1-12.1l0,0c6.69,0,12.1,5.42,12.1,12.1L68.49,134.25
	L68.49,134.25z"/>
<polygon class="st0" points="56.25,94.87 45.82,89.15 35.41,83.44 56.25,83.44 77.08,83.44 66.66,89.15 "/>
<path class="st1" d="M139.64,77.9c-0.6-2.83-1.47-5.53-2.58-8.06c-3.2-7.3-14.77-3.77-13.36,4.07c0.03,0.14,0.05,0.29,0.08,0.43
	c2.57,4.96,4.07,10.9,4.07,17.28c0,17.48-11.23,31.65-25.08,31.65c-2.35,0-4.63-0.42-6.79-1.18c-0.02,0.01-0.03,0.01-0.04,0.02
	c-8.43,3.53-17.12,4.52-25.27,3.44c11.19,6.15,25.26,7.67,38.89,2.84C131.06,120.74,144.07,98.91,139.64,77.9z"/>
<polygon class="st6" points="36.17,139.25 35.68,138.86 35.68,136.41 36.17,136.41 "/>
<rect x="39.01" y="136.41" class="st6" width="0.47" height="3.86"/>
<polygon class="st6" points="42.15,139.32 42.15,136.41 41.66,136.41 41.66,139.67 "/>
<polygon class="st6" points="70.48,140.16 69.99,139.78 69.99,137.32 70.48,137.32 "/>
<rect x="73.32" y="137.32" class="st6" width="0.47" height="3.86"/>
<polygon class="st6" points="76.45,140.24 76.45,137.32 75.97,137.32 75.97,140.59 "/>
<path class="st0" d="M78.75,134.1h5.5c0-3.04-2.46-5.5-5.5-5.5V134.1z"/>
<path class="st4" d="M46.07,73.32l0.47,0.41c5.56,4.88,13.94,4.6,19.16-0.63l0,0"/>
<path class="st7" d="M44.52,52.84l-0.47-0.41c-5.56-4.88-13.94-4.6-19.16,0.63l0,0"/>
<path class="st7" d="M87.38,52.84l-0.47-0.41c-5.56-4.88-13.94-4.6-19.16,0.63l0,0"/>
</svg>
