<?xml version="1.0" encoding="utf-8"?>
<!-- Generator: Adobe Illustrator 23.0.3, SVG Export Plug-In . SVG Version: 6.00 Build 0)  -->
<svg version="1.1" id="Layer_1" xmlns="http://www.w3.org/2000/svg" xmlns:xlink="http://www.w3.org/1999/xlink" x="0px" y="0px"
	 viewBox="0 0 141.7 141.7" style="enable-background:new 0 0 141.7 141.7;" xml:space="preserve">
<style type="text/css">
	.st0{fill:#5C5454;}
	.st1{fill:#4D4040;}
	.st2{fill:#F4A8A8;stroke:#4D4040;stroke-width:7;stroke-miterlimit:10;}
	.st3{fill:#D88F8F;}
	.st4{fill:none;stroke:#AD9999;stroke-miterlimit:10;}
	.st5{fill:#393030;}
	.st6{fill:#FFFFFF;}
	.st7{fill:none;stroke:#DBDB0D;stroke-width:2;stroke-miterlimit:10;}
</style>
<polygon class="st0" points="97.2,94.5 81.2,95.6 80.1,77.7 "/>
<path class="st1" d="M84.8,79H33c-12.3,0-22.2-9.9-22.2-22.2V44c0-12.3,9.9-22.2,22.2-22.2h51.8c12.3,0,22.2,9.9,22.2,22.2v12.9
	C107.1,69.1,97.1,79,84.8,79z"/>
<polygon class="st2" points="102.2,61.6 96.9,44.3 91.6,27 109.2,31.1 114.5,48.3 "/>
<polygon class="st2" points="30.9,25.4 22.5,41.4 14.1,57.4 4.4,42.2 12.9,26.2 "/>
<path class="st3" d="M60.3,64.9c-0.6,0.7-2,0.7-2.6,0L56,63l-1.6-2c-0.6-0.7,0.2-1.6,1.3-1.6H59h3.2c1.2,0,1.9,0.9,1.3,1.6l-1.6,2
	L60.3,64.9z"/>
<line class="st4" x1="59" y1="65.5" x2="59" y2="73.3"/>
<path class="st1" d="M42.8,134.3L42.8,134.3c-2.8,0-5-2.3-5-5V75c0-2.8,2.3-5,5-5l0,0c2.8,0,5,2.3,5,5v54.3
	C47.8,132,45.5,134.3,42.8,134.3z"/>
<path class="st1" d="M75.9,135.1L75.9,135.1c-2.8,0-5-2.3-5-5V75.8c0-2.8,2.3-5,5-5l0,0c2.8,0,5,2.3,5,5v54.3
	C80.9,132.9,78.6,135.1,75.9,135.1z"/>
<rect x="38.4" y="77.5" class="st1" width="40.9" height="51"/>
<circle class="st1" cx="86.7" cy="108.5" r="20"/>
<path class="st1" d="M87.3,128.5H66v-12.4h26.1v7.6C92.1,126.3,89.9,128.5,87.3,128.5z"/>
<path class="st5" d="M71,128.5H47.6v-19.2c0-5.8,5.2-10.5,11.7-10.5l0,0c6.5,0,11.7,4.7,11.7,10.5L71,128.5L71,128.5z"/>
<polygon class="st0" points="59.2,90.5 49.1,85 39.1,79.5 59.2,79.5 79.3,79.5 69.2,85 "/>
<path class="st1" d="M132.4,111c-0.5-0.8-1.3-1.5-2.2-2.2c-2.8-2-12.7-1-11.5,1.1c0,0,0,0.1,0.1,0.1c2.2,1.4,3.5,3,3.5,4.7
	c0,4.8-9.7,8.7-21.6,8.7c-2,0-4-0.1-5.8-0.3c0,0,0,0,0,0c-7.2,1-14.7,1.2-21.7,0.9c9.6,1.7,21.7,2.1,33.4,0.8
	C125,122.7,136.2,116.7,132.4,111z"/>
<polygon class="st6" points="39.8,133.3 39.3,132.9 39.3,130.6 39.8,130.6 "/>
<rect x="42.5" y="130.6" class="st6" width="0.5" height="3.7"/>
<polygon class="st6" points="45.6,133.4 45.6,130.6 45.1,130.6 45.1,133.7 "/>
<polygon class="st6" points="72.9,134.2 72.4,133.8 72.4,131.5 72.9,131.5 "/>
<rect x="75.7" y="131.5" class="st6" width="0.4" height="3.7"/>
<polygon class="st6" points="78.7,134.3 78.7,131.5 78.2,131.5 78.2,134.6 "/>
<path class="st0" d="M80.9,128.4h5.3c0-2.9-2.4-5.3-5.3-5.3V128.4z"/>
<path class="st4" d="M68.3,77.1l-0.4-0.4c-5.4-4.7-13.5-4.4-18.5,0.6l0,0"/>
<g>
	<line class="st7" x1="28" y1="37.9" x2="48.5" y2="58.4"/>
	<line class="st7" x1="28.2" y1="58.4" x2="48.7" y2="37.9"/>
</g>
<g>
	<line class="st7" x1="69.7" y1="37.9" x2="90.2" y2="58.4"/>
	<line class="st7" x1="69.9" y1="58.4" x2="90.4" y2="37.9"/>
</g>
</svg>
