<?xml version="1.0" encoding="utf-8"?>
<!-- Generator: Adobe Illustrator 23.0.2, SVG Export Plug-In . SVG Version: 6.00 Build 0)  -->
<svg version="1.1" id="Layer_1" xmlns="http://www.w3.org/2000/svg" xmlns:xlink="http://www.w3.org/1999/xlink" x="0px" y="0px"
	 viewBox="0 0 141.73 141.73" style="enable-background:new 0 0 141.73 141.73;" xml:space="preserve">
<style type="text/css">
	.st0{fill:#4D4040;}
	.st1{fill:#F4A8A8;stroke:#4D4040;stroke-width:7;stroke-miterlimit:10;}
	.st2{fill:#3D3636;stroke:#DBDB0D;stroke-width:2;stroke-miterlimit:10;}
	.st3{fill:#D88F8F;}
	.st4{fill:none;stroke:#AD9999;stroke-miterlimit:10;}
	.st5{fill:#FFFFFF;}
	.st6{fill:#3F3B3B;}
	.st7{fill:#5C5454;}
</style>
<path class="st0" d="M71.36,83.66h-45.8c-10.85,0-19.65-8.8-19.65-19.65V52.64c0-10.85,8.8-19.65,19.65-19.65h45.8
	c10.85,0,19.65,8.8,19.65,19.65v11.38C91.01,74.86,82.22,83.66,71.36,83.66z"/>
<polygon class="st1" points="88.01,55.76 75.51,45.81 63.01,35.87 77.86,30.01 92.73,24.16 90.37,39.96 "/>
<circle class="st2" cx="30.87" cy="56.34" r="8.65"/>
<circle class="st2" cx="66.85" cy="56.34" r="8.65"/>
<polygon class="st1" points="34.92,33.86 22.07,43.35 9.22,52.84 7.43,36.97 5.63,21.09 20.28,27.47 "/>
<path class="st3" d="M49.62,71.18c-0.51,0.63-1.81,0.63-2.32,0l-1.42-1.75l-1.42-1.75c-0.51-0.63,0.13-1.42,1.15-1.42h2.85h2.85
	c1.03,0,1.68,0.79,1.15,1.42l-1.42,1.75L49.62,71.18z"/>
<line class="st4" x1="48.46" y1="71.65" x2="48.46" y2="78.58"/>
<path class="st0" d="M33.43,130.46L33.43,130.46c-2.46-0.15-4.33-2.26-4.18-4.72l2.88-47.93c0.15-2.46,2.26-4.33,4.72-4.18l0,0
	c2.46,0.15,4.33,2.26,4.18,4.72l-2.88,47.93C38,128.74,35.89,130.61,33.43,130.46z"/>
<path class="st0" d="M139.35,51.34c-0.51-2.42-1.25-4.72-2.2-6.88c-2.73-6.23-12.61-3.22-11.4,3.47c0.02,0.12,0.04,0.24,0.07,0.37
	c2.2,4.24,3.47,9.3,3.47,14.74c0,14.92-9.58,27.01-21.41,27.01c-2.01,0-3.95-0.36-5.79-1.01c-0.02,0.01-0.02,0.01-0.03,0.02
	c-7.2,3.01-14.61,3.85-21.57,2.94c9.55,5.25,21.56,6.55,33.19,2.42C132.02,87.9,143.13,69.26,139.35,51.34z"/>
<polygon class="st5" points="30.87,129.44 30.48,129.09 30.6,126.99 31.02,127.02 "/>
<rect x="31.89" y="128.62" transform="matrix(0.0601 -0.9982 0.9982 0.0601 -97.0657 154.5594)" class="st5" width="3.29" height="0.4"/>
<polygon class="st5" points="35.96,129.81 36.11,127.33 35.69,127.3 35.53,130.09 "/>
<path class="st6" d="M85.42,130.88L85.42,130.88c-2.43-0.42-4.13-2.25-3.82-4.09l6.2-35.97c0.32-1.85,2.54-3,4.97-2.58l0,0
	c2.43,0.42,4.13,2.25,3.82,4.09l-6.2,35.97C90.07,130.14,87.85,131.3,85.42,130.88z"/>
<path class="st0" d="M93.08,116.98h-4.7c-1.54,0-3.07-0.27-4.52-0.79l-4.29-1.55l-4.32-1.32c-1.54-0.47-4.42-0.73-6.52-0.63
	c-0.72,0.03-1.43,0.16-2.13,0.35L63.1,114c-0.48,0.08-0.94,0.24-1.37,0.47l0,0c-3.42,1.01-6.54,2.51-10.04,2.51h-8.4
	c-3.04,0-6.35,0-5.52-5.52V83.37c0-0.29,0.23-0.52,0.52-0.52h54.79c8.78,0,15.96,7.18,15.96,15.96v2.2
	C109.05,109.79,101.86,116.98,93.08,116.98z"/>
<polygon class="st5" points="82.96,129.81 82.59,129.5 82.86,127.93 83.27,128 "/>
<rect x="84.39" y="129.48" transform="matrix(0.1697 -0.9855 0.9855 0.1697 -56.6889 192.0668)" class="st5" width="2.5" height="0.4"/>
<polygon class="st5" points="87.98,130.73 88.3,128.86 87.89,128.79 87.53,130.88 "/>
<path class="st0" d="M47.99,135.04L47.99,135.04c-2.45-0.28-4.25-2.02-4.04-3.88l4.21-36.25c0.22-1.86,2.37-3.14,4.82-2.85l0,0
	c2.45,0.28,4.25,2.02,4.04,3.88l-4.21,36.25C52.59,134.05,50.43,135.32,47.99,135.04z"/>
<polygon class="st5" points="45.47,134.11 45.09,133.82 45.27,132.23 45.69,132.28 "/>
<rect x="46.9" y="133.63" transform="matrix(0.1153 -0.9933 0.9933 0.1153 -90.3388 166.2282)" class="st5" width="2.5" height="0.4"/>
<polygon class="st5" points="50.53,134.75 50.75,132.87 50.34,132.82 50.1,134.93 "/>
<path class="st0" d="M95.12,135.91L95.12,135.91c-2.42-0.45-4.1-2.3-3.76-4.15l6.68-35.88c0.34-1.84,2.58-2.97,5-2.51l0,0
	c2.42,0.45,4.1,2.3,3.76,4.15l-6.68,35.88C99.78,135.23,97.54,136.36,95.12,135.91z"/>
<polygon class="st7" points="41.39,94.39 37.51,89.51 33.64,84.63 41.39,84.63 49.14,84.63 45.27,89.51 "/>
<polygon class="st5" points="92.68,134.81 92.32,134.49 92.61,132.92 93.02,133 "/>
<rect x="94.11" y="134.51" transform="matrix(0.183 -0.9831 0.9831 0.183 -54.5209 203.8116)" class="st5" width="2.5" height="0.4"/>
<polygon class="st5" points="97.68,135.79 98.03,133.93 97.62,133.86 97.23,135.94 "/>
<path class="st4" d="M39.49,75.02l0.43,0.37c5.08,4.46,12.74,4.21,17.52-0.57l0,0"/>
</svg>
