<?xml version="1.0" encoding="utf-8"?>
<!-- Generator: Adobe Illustrator 23.0.2, SVG Export Plug-In . SVG Version: 6.00 Build 0)  -->
<svg version="1.1" id="Layer_1" xmlns="http://www.w3.org/2000/svg" xmlns:xlink="http://www.w3.org/1999/xlink" x="0px" y="0px"
	 viewBox="0 0 141.73 141.73" style="enable-background:new 0 0 141.73 141.73;" xml:space="preserve">
<style type="text/css">
	.st0{fill:#5C5454;}
	.st1{fill:#4D4040;}
	.st2{fill:#F4A8A8;stroke:#4D4040;stroke-width:7;stroke-miterlimit:10;}
	.st3{fill:#3D3636;stroke:#DBDB0D;stroke-width:2;stroke-miterlimit:10;}
	.st4{fill:#D88F8F;}
	.st5{fill:none;stroke:#AD9999;stroke-miterlimit:10;}
	.st6{fill:#393030;}
	.st7{fill:#FFFFFF;}
	.st8{fill:#3E79BD;}
</style>
<polygon class="st0" points="97.16,94.53 81.24,95.56 80.08,77.67 "/>
<path class="st1" d="M84.85,79.04h-51.8c-12.27,0-22.22-9.95-22.22-22.22V43.95c0-12.27,9.95-22.22,22.22-22.22h51.8
	c12.27,0,22.22,9.95,22.22,22.22v12.87C107.08,69.09,97.13,79.04,84.85,79.04z"/>
<polygon class="st2" points="102.18,61.55 96.91,44.27 91.63,26.98 109.24,31.06 114.52,48.34 "/>
<circle class="st3" cx="39.07" cy="48.14" r="9.78"/>
<circle class="st3" cx="79.76" cy="48.14" r="9.78"/>
<polygon class="st2" points="30.91,25.43 22.51,41.43 14.1,57.42 4.45,42.15 12.85,26.15 "/>
<path class="st4" d="M60.27,64.93c-0.58,0.72-2.04,0.72-2.62,0l-1.61-1.98l-1.61-1.98c-0.58-0.72,0.15-1.61,1.31-1.61h3.22h3.22
	c1.17,0,1.89,0.89,1.31,1.61l-1.61,1.98L60.27,64.93z"/>
<line class="st5" x1="58.96" y1="65.46" x2="58.96" y2="73.3"/>
<path class="st1" d="M42.76,134.3L42.76,134.3c-2.79,0-5.04-2.25-5.04-5.04v-54.3c0-2.79,2.25-5.04,5.04-5.04l0,0
	c2.79,0,5.04,2.25,5.04,5.04v54.3C47.8,132.04,45.55,134.3,42.76,134.3z"/>
<path class="st1" d="M75.86,135.13L75.86,135.13c-2.79,0-5.04-2.25-5.04-5.04v-54.3c0-2.79,2.25-5.04,5.04-5.04l0,0
	c2.79,0,5.04,2.25,5.04,5.04v54.3C80.9,132.88,78.64,135.13,75.86,135.13z"/>
<rect x="38.38" y="77.46" class="st1" width="40.9" height="51.03"/>
<circle class="st1" cx="86.69" cy="108.47" r="20.01"/>
<path class="st1" d="M87.25,128.49H66.03v-12.44H92.1v7.6C92.1,126.32,89.93,128.49,87.25,128.49z"/>
<path class="st6" d="M71,128.49H47.63v-21.33c0-6.46,5.23-11.68,11.68-11.68l0,0c6.46,0,11.68,5.23,11.68,11.68L71,128.49L71,128.49
	z"/>
<polygon class="st0" points="59.18,90.48 49.12,84.96 39.07,79.45 59.18,79.45 79.29,79.45 69.23,84.96 "/>
<path class="st1" d="M139.67,74.11c-0.58-2.73-1.42-5.33-2.49-7.78c-3.09-7.05-14.26-3.64-12.9,3.93c0.03,0.14,0.05,0.28,0.07,0.41
	c2.48,4.79,3.93,10.52,3.93,16.68c0,16.87-10.84,30.55-24.21,30.55c-2.27,0-4.47-0.4-6.55-1.14c-0.02,0.01-0.03,0.01-0.04,0.02
	c-8.14,3.4-16.53,4.36-24.39,3.32c10.8,5.93,24.38,7.4,37.54,2.74C131.39,115.45,143.95,94.38,139.67,74.11z"/>
<polygon class="st7" points="39.8,133.31 39.33,132.94 39.33,130.57 39.8,130.57 "/>
<rect x="42.54" y="130.57" class="st7" width="0.45" height="3.73"/>
<polygon class="st7" points="45.57,133.39 45.57,130.57 45.1,130.57 45.1,133.73 "/>
<polygon class="st7" points="72.91,134.2 72.44,133.83 72.44,131.45 72.91,131.45 "/>
<rect x="75.66" y="131.45" class="st7" width="0.45" height="3.73"/>
<polygon class="st7" points="78.68,134.27 78.68,131.45 78.21,131.45 78.21,134.61 "/>
<path class="st0" d="M80.9,128.35h5.31c0-2.93-2.37-5.31-5.31-5.31V128.35z"/>
<path class="st5" d="M68.32,77.06l-0.45-0.4c-5.36-4.71-13.46-4.44-18.5,0.61l0,0"/>
<ellipse transform="matrix(0.9762 -0.2169 0.2169 0.9762 -11.6871 17.3826)" class="st8" cx="73.34" cy="61.93" rx="1.82" ry="3.06"/>
</svg>
